HIERARCHY
ROOT Hips
{
	OFFSET 0.000000 0.000000 0.000000
	CHANNELS 6 Xposition Yposition Zposition Xrotation Yrotation Zrotation
	JOINT LeftUpLeg_virtual
	{
		OFFSET 0.000000 0.000000 0.000000
		CHANNELS 3 Xrotation Yrotation Zrotation
		JOINT LeftUpLeg
		{
			OFFSET 13.026900 -6.336304 -1.092800
			CHANNELS 3 Xrotation Yrotation Zrotation
			JOINT LeftLeg
			{
				OFFSET 0.524474 -46.096886 9.782700
				CHANNELS 3 Xrotation Yrotation Zrotation
				JOINT LeftFoot
				{
					OFFSET -0.524474 -53.427422 -12.948200
					CHANNELS 3 Xrotation Yrotation Zrotation
					JOINT LeftToeBase
					{
						OFFSET 0.192200 -14.009700 16.364100
						CHANNELS 3 Xrotation Yrotation Zrotation
						JOINT LeftToe_End
						{
							OFFSET -1.784700 -0.561700 9.474800
							CHANNELS 3 Xrotation Yrotation Zrotation
							End Site
							{
								OFFSET 0 0 0
							}
						}
					}
				}
			}
		}
	}
	JOINT RightUpLeg_virtual
	{
		OFFSET 0.000000 0.000000 0.000000
		CHANNELS 3 Xrotation Yrotation Zrotation
		JOINT RightUpLeg
		{
			OFFSET -12.883000 -6.336304 -1.092800
			CHANNELS 3 Xrotation Yrotation Zrotation
			JOINT RightLeg
			{
				OFFSET -0.524587 -46.096825 9.782800
				CHANNELS 3 Xrotation Yrotation Zrotation
				JOINT RightFoot
				{
					OFFSET 0.524587 -53.427383 -12.948300
					CHANNELS 3 Xrotation Yrotation Zrotation
					JOINT RightToeBase
					{
						OFFSET -0.192200 -14.009700 16.364100
						CHANNELS 3 Xrotation Yrotation Zrotation
						JOINT RightToe_End
						{
							OFFSET 1.784700 -0.561700 9.474800
							CHANNELS 3 Xrotation Yrotation Zrotation
							End Site
							{
								OFFSET 0 0 0
							}
						}
					}
				}
			}
		}
	}
	JOINT Spine_virtual
	{
		OFFSET 0.000000 0.000000 0.000000
		CHANNELS 3 Xrotation Yrotation Zrotation
		JOINT Spine
		{
			OFFSET 0.072000 7.257294 -0.789700
			CHANNELS 3 Xrotation Yrotation Zrotation
			JOINT Spine1
			{
				OFFSET 0.000000 12.508769 -0.658067
				CHANNELS 3 Xrotation Yrotation Zrotation
				JOINT Spine1_split
				{
					OFFSET 0.000000 12.508769 -0.658067
					CHANNELS 3 Xrotation Yrotation Zrotation
					JOINT Spine2
					{
						OFFSET 0.000000 12.508769 -0.658067
						CHANNELS 3 Xrotation Yrotation Zrotation
						JOINT Neck_virtual
						{
							OFFSET 0.000000 0.000000 0.000000
							CHANNELS 3 Xrotation Yrotation Zrotation
							JOINT Neck
							{
								OFFSET 0.000000 14.033295 7.520400
								CHANNELS 3 Xrotation Yrotation Zrotation
								JOINT Head
								{
									OFFSET 0.000000 8.198502 5.703100
									CHANNELS 3 Xrotation Yrotation Zrotation
									JOINT HeadTop_End
									{
										OFFSET 0.000000 17.760803 13.332701
										CHANNELS 3 Xrotation Yrotation Zrotation
										End Site
										{
											OFFSET 0 0 0
										}
									}
								}
							}
						}
						JOINT LeftShoulder_virtual
						{
							OFFSET 0.000000 0.000000 0.000000
							CHANNELS 3 Xrotation Yrotation Zrotation
							JOINT LeftShoulder
							{
								OFFSET 6.292450 5.785301 -0.669000
								CHANNELS 3 Xrotation Yrotation Zrotation
								JOINT LeftShoulder_split
								{
									OFFSET 6.292450 5.785301 -0.669000
									CHANNELS 3 Xrotation Yrotation Zrotation
									JOINT LeftArm
									{
										OFFSET 13.907140 -6.093903 1.965100
										CHANNELS 3 Xrotation Yrotation Zrotation
										JOINT LeftForeArm
										{
											OFFSET 34.140198 0.000000 0.000000
											CHANNELS 3 Xrotation Yrotation Zrotation
											JOINT LeftHand
											{
												OFFSET 40.960209 0.000000 0.000000
												CHANNELS 3 Xrotation Yrotation Zrotation
												End Site
												{
													OFFSET 0 0 0
												}
											}
										}
									}
								}
							}
						}
						JOINT RightShoulder_virtual
						{
							OFFSET 0.000000 0.000000 0.000000
							CHANNELS 3 Xrotation Yrotation Zrotation
							JOINT RightShoulder
							{
								OFFSET -6.292450 5.785301 -0.669000
								CHANNELS 3 Xrotation Yrotation Zrotation
								JOINT RightShoulder_split
								{
									OFFSET -6.292450 5.785301 -0.669000
									CHANNELS 3 Xrotation Yrotation Zrotation
									JOINT RightArm
									{
										OFFSET -13.907140 -6.093903 1.965100
										CHANNELS 3 Xrotation Yrotation Zrotation
										JOINT RightForeArm
										{
											OFFSET -34.140198 0.000000 0.000000
											CHANNELS 3 Xrotation Yrotation Zrotation
											JOINT RightHand
											{
												OFFSET -40.960209 0.000000 0.000000
												CHANNELS 3 Xrotation Yrotation Zrotation
												End Site
												{
													OFFSET 0 0 0
												}
											}
										}
									}
								}
							}
						}
					}
				}
			}
		}
	}
}
MOTION
Frames: 8
Frame Time: 0.03333333
-4.017166 103.621399 -0.501888 0.000000 0.000000 0.000000 51.570718 -70.899843 52.817576 -52.875868 2.427360 -3.089850 43.919114 -9.137838 1.738475 -7.589062 -0.802779 -0.070416 -0.379278 1.642673 -1.202616 0.000000 0.000000 0.000000 51.570718 -70.899843 52.817576 -45.704959 -3.706380 -19.058091 44.853781 -4.828062 -2.084380 -12.015085 -2.562501 14.894942 -1.799731 -0.000019 0.000001 0.000000 0.000000 0.000000 51.570718 -70.899843 52.817576 7.801439 3.322698 4.225330 12.707904 6.406384 6.655391 0.000000 0.000000 0.000000 0.000000 0.000000 0.000000 12.728350 6.436539 6.586121 3.385418 -0.460127 2.258546 8.874425 1.648274 -4.487663 0.000000 0.000000 0.000000 12.728350 6.436539 6.586121 0.608283 -2.105591 -11.581397 0.000000 0.000000 0.000000 -46.459169 -29.078823 -92.550730 0.000002 -20.859007 -0.000002 0.000000 0.000000 0.000000 12.728350 6.436539 6.586121 -0.784368 15.466921 22.252690 0.000000 0.000000 0.000000 -56.162873 25.008318 77.070946 0.000010 0.015610 -0.000010 0.000000 0.000000 0.000000 
-4.024765 103.667969 -0.365025 0.000000 0.000000 0.000000 51.432055 -70.863691 52.644537 -52.811952 2.376722 -3.149115 43.842154 -9.007280 1.717023 -7.548886 -0.807242 -0.022419 -0.366036 1.568056 -1.147998 0.000000 0.000000 0.000000 51.432055 -70.863691 52.644537 -45.584768 -3.739281 -19.140990 44.706569 -4.769758 -2.034137 -11.957959 -2.627204 14.937212 -1.783699 -0.000025 -0.000006 0.000000 0.000000 0.000000 51.432055 -70.863691 52.644537 7.803330 3.311167 4.211388 12.734713 6.382441 6.620572 0.000000 0.000000 0.000000 0.000000 0.000000 0.000000 12.753684 6.413132 6.553442 3.323823 -0.449309 2.118599 8.568384 2.100351 -4.603539 0.000000 0.000000 0.000000 12.753684 6.413132 6.553442 0.607731 -2.121758 -11.501782 0.000000 0.000000 0.000000 -46.348766 -29.026190 -92.588713 0.000002 -20.910923 0.000011 0.000000 0.000000 0.000000 12.753684 6.413132 6.553442 -0.771699 15.442477 22.219736 0.000000 0.000000 0.000000 -54.175544 25.033927 76.267743 0.000003 3.450925 0.000001 0.000000 0.000000 0.000000 
-4.018066 103.706169 -0.221985 0.000000 0.000000 0.000000 51.320887 -70.812526 52.506741 -52.777042 2.401309 -3.234796 43.788309 -9.011185 1.726475 -7.516761 -0.815457 0.057745 -0.307530 1.694421 -1.263365 0.000000 0.000000 0.000000 51.320887 -70.812526 52.506741 -45.487926 -3.727282 -19.236365 44.572913 -4.733131 -1.966655 -11.893100 -2.694945 14.989719 -1.766021 -0.000032 -0.000003 0.000000 0.000000 0.000000 51.320887 -70.812526 52.506741 7.804643 3.309743 4.191960 12.761462 6.360632 6.585518 0.000000 0.000000 0.000000 0.000000 0.000000 0.000000 12.782063 6.390452 6.516442 3.261842 -0.433255 1.978199 8.264419 2.555800 -4.677154 0.000000 0.000000 0.000000 12.782063 6.390452 6.516442 0.622092 -2.152976 -11.444266 0.000000 0.000000 0.000000 -46.248987 -29.013541 -92.576787 0.000001 -20.995848 0.000004 0.000000 0.000000 0.000000 12.782063 6.390452 6.516442 -0.770528 15.402024 22.186655 0.000000 0.000000 0.000000 -52.826920 25.199973 75.725378 0.000008 5.532898 -0.000007 0.000000 0.000000 0.000000 
-3.997412 103.735847 -0.067448 0.000000 0.000000 0.000000 51.205737 -70.747605 52.366364 -52.770506 2.349542 -3.326162 43.731932 -8.899958 1.695837 -7.481147 -0.822779 0.117292 -0.285294 1.699306 -1.273449 0.000000 0.000000 0.000000 51.205737 -70.747605 52.366364 -45.418774 -3.727495 -19.342908 44.446838 -4.690165 -1.916740 -11.821638 -2.761384 15.053559 -1.754203 -0.000005 0.000004 0.000000 0.000000 0.000000 51.205737 -70.747605 52.366364 7.803074 3.303467 4.173920 12.781149 6.342105 6.541862 0.000000 0.000000 0.000000 0.000000 0.000000 0.000000 12.800698 6.371302 6.475298 3.199634 -0.415967 1.840736 7.937528 3.014456 -4.718351 0.000000 0.000000 0.000000 12.800698 6.371302 6.475298 0.617852 -2.182636 -11.388321 0.000000 0.000000 0.000000 -46.114896 -29.034294 -92.541728 -0.000008 -21.111746 -0.000003 0.000000 0.000000 0.000000 12.800698 6.371302 6.475298 -0.767996 15.352010 22.171656 0.000000 0.000000 0.000000 -51.911565 25.479590 75.377121 0.000001 6.967198 -0.000005 0.000000 0.000000 0.000000 
-3.962622 103.754005 0.104576 0.000000 0.000000 0.000000 51.059567 -70.671817 52.189113 -52.779392 2.321885 -3.434692 43.693734 -8.821200 1.673197 -7.450966 -0.844400 0.232473 -0.250849 1.735977 -1.311906 0.000000 0.000000 0.000000 51.059567 -70.671817 52.189113 -45.357405 -3.717794 -19.463022 44.331985 -4.661857 -1.862548 -11.745065 -2.827608 15.135023 -1.740391 0.000022 0.000005 0.000000 0.000000 0.000000 51.059567 -70.671817 52.189113 7.804065 3.298019 4.157653 12.809829 6.318494 6.496771 0.000000 0.000000 0.000000 0.000000 0.000000 0.000000 12.828878 6.349023 6.429873 3.137323 -0.400762 1.701673 7.596242 3.482411 -4.739420 0.000000 0.000000 0.000000 12.828878 6.349023 6.429873 0.616125 -2.212806 -11.335211 0.000000 0.000000 0.000000 -45.984471 -29.111065 -92.484054 -0.000004 -21.276685 0.000015 0.000000 0.000000 0.000000 12.828878 6.349023 6.429873 -0.757177 15.311356 22.171912 0.000000 0.000000 0.000000 -51.116603 25.809123 75.054592 0.000014 8.195413 -0.000006 0.000000 0.000000 0.000000 
-3.914751 103.756508 0.300617 0.000000 0.000000 0.000000 50.872256 -70.593625 51.959930 -52.807024 2.302204 -3.550978 43.689507 -8.734030 1.649362 -7.437912 -0.871590 0.375555 -0.207182 1.736543 -1.324728 0.000000 0.000000 0.000000 50.872256 -70.593625 51.959930 -45.295803 -3.703017 -19.594331 44.231506 -4.638259 -1.806820 -11.665692 -2.899667 15.236042 -1.750720 0.000020 -0.000004 0.000000 0.000000 0.000000 50.872256 -70.593625 51.959930 7.805900 3.285206 4.141914 12.845077 6.291918 6.449420 0.000000 0.000000 0.000000 0.000000 0.000000 0.000000 12.862210 6.323557 6.385102 3.074472 -0.377536 1.561416 7.232183 3.946841 -4.759505 0.000000 0.000000 0.000000 12.862210 6.323557 6.385102 0.616120 -2.237534 -11.292866 0.000000 0.000000 0.000000 -45.833554 -29.292834 -92.389175 0.000001 -21.530561 -0.000004 0.000000 0.000000 0.000000 12.862210 6.323557 6.385102 -0.757584 15.263432 22.175915 0.000000 0.000000 0.000000 -50.434687 26.203389 74.763244 0.000000 9.122699 -0.000006 0.000000 0.000000 0.000000 
-3.854004 103.740532 0.525467 0.000000 0.000000 0.000000 50.656303 -70.525521 51.692818 -52.851686 2.269096 -3.665860 43.718142 -8.650969 1.595611 -7.409300 -0.899557 0.535693 -0.172031 1.753998 -1.348382 0.000000 0.000000 0.000000 50.656303 -70.525521 51.692818 -45.236261 -3.693072 -19.734201 44.147297 -4.609385 -1.764839 -11.583290 -2.970676 15.360462 -1.770619 -0.000033 0.000000 0.000000 0.000000 0.000000 50.656303 -70.525521 51.692818 7.808042 3.272703 4.124460 12.887327 6.258019 6.399471 0.000000 0.000000 0.000000 0.000000 0.000000 0.000000 12.903770 6.288790 6.337438 3.001079 -0.351247 1.418038 6.833200 4.414078 -4.782950 0.000000 0.000000 0.000000 12.903770 6.288790 6.337438 0.621624 -2.243011 -11.271411 0.000000 0.000000 0.000000 -45.640806 -29.634774 -92.225264 0.000005 -21.909439 -0.000003 0.000000 0.000000 0.000000 12.903770 6.288790 6.337438 -0.747943 15.217125 22.161775 0.000000 0.000000 0.000000 -49.834617 26.653408 74.512234 -0.000011 10.038161 0.000006 0.000000 0.000000 0.000000 
-3.778446 103.704544 0.782585 0.000000 0.000000 0.000000 50.437399 -70.479499 51.419734 -52.905860 2.283230 -3.776617 43.786273 -8.589123 1.543931 -7.379067 -0.931490 0.730038 -0.144959 1.788167 -1.382864 0.000000 0.000000 0.000000 50.437399 -70.479499 51.419734 -45.174034 -3.656835 -19.881477 44.082693 -4.578419 -1.724156 -11.494993 -3.045263 15.507543 -1.741362 -0.000003 -0.000004 0.000000 0.000000 0.000000 50.437399 -70.479499 51.419734 7.809614 3.269859 4.106414 12.934777 6.212471 6.340189 0.000000 0.000000 0.000000 0.000000 0.000000 0.000000 12.953245 6.242012 6.275854 2.930775 -0.326425 1.276836 6.413639 4.892230 -4.798893 0.000000 0.000000 0.000000 12.953245 6.242012 6.275854 0.603708 -2.239424 -11.268431 0.000000 0.000000 0.000000 -45.367769 -30.153427 -91.970280 -0.000002 -22.411159 -0.000003 0.000000 0.000000 0.000000 12.953245 6.242012 6.275854 -0.728445 15.174198 22.118039 0.000000 0.000000 0.000000 -49.579968 27.203773 74.416045 0.000012 10.391203 -0.000013 0.000000 0.000000 0.000000 
